<svg width="473" height="305" viewBox="0 0 473 305" fill="none" xmlns="http://www.w3.org/2000/svg">
  <path
    d="M45.76 128.3C37.7867 128.3 31.0267 126.61 25.48 123.23C19.9333 119.763 15.73 114.91 12.87 108.67C10.01 102.43 8.58 95.15 8.58 86.83V78.64C8.58 70.32 9.83667 63.0833 12.35 56.93C14.95 50.69 18.8067 45.88 23.92 42.5C29.0333 39.0333 35.4467 37.3 43.16 37.3C49.7467 37.3 55.25 38.6 59.67 41.2C64.09 43.7133 67.34 47.0933 69.42 51.34C71.5867 55.5 72.4967 60.05 72.15 64.99L56.94 68.76C57.8067 60.0933 56.8967 53.4633 54.21 48.87C51.61 44.19 47.71 41.85 42.51 41.85C36.9633 41.85 32.6733 44.19 29.64 48.87C26.6933 53.55 25.22 61.3067 25.22 72.14V93.33C25.22 104.077 26.91 111.833 30.29 116.6C33.67 121.367 38.8267 123.75 45.76 123.75C48.62 123.75 51.2633 123.23 53.69 122.19C56.2033 121.15 58.2833 119.373 59.93 116.86C61.6633 114.26 62.7467 110.62 63.18 105.94L72.54 108.41C71.3267 113.263 69.3767 117.163 66.69 120.11C64.0033 123.057 60.84 125.18 57.2 126.48C53.6467 127.693 49.8333 128.3 45.76 128.3ZM143.868 92.68V95.28C143.868 105.247 141.268 113.263 136.068 119.33C130.955 125.31 123.632 128.3 114.098 128.3C104.565 128.3 97.1984 125.31 91.9984 119.33C86.885 113.263 84.3284 105.247 84.3284 95.28V92.68C84.3284 82.7133 86.885 74.74 91.9984 68.76C97.1984 62.78 104.565 59.79 114.098 59.79C123.632 59.79 130.955 62.78 136.068 68.76C141.268 74.74 143.868 82.7133 143.868 92.68ZM127.878 90.08C127.878 80.8067 126.708 74.22 124.368 70.32C122.028 66.3333 118.605 64.34 114.098 64.34C109.678 64.34 106.255 66.3333 103.828 70.32C101.488 74.22 100.318 80.8067 100.318 90.08V97.88C100.318 107.067 101.488 113.697 103.828 117.77C106.255 121.757 109.678 123.75 114.098 123.75C118.605 123.75 122.028 121.757 124.368 117.77C126.708 113.697 127.878 107.067 127.878 97.88V90.08ZM230.126 123.36V127H195.156V123.36L202.306 122.45C203.693 122.277 204.516 121.93 204.776 121.41C205.036 120.803 205.166 119.027 205.166 116.08V83.32C205.166 77.34 204.256 73.0067 202.436 70.32C200.703 67.5467 198.103 66.16 194.636 66.16C193.163 66.16 191.43 66.55 189.436 67.33C187.53 68.0233 185.58 69.3233 183.586 71.23C181.68 73.1367 179.99 75.9533 178.516 79.68V116.08C178.516 119.027 178.646 120.803 178.906 121.41C179.166 121.93 179.99 122.277 181.376 122.45L188.526 123.36V127H153.556V123.36L160.706 122.45C162.093 122.277 162.916 121.93 163.176 121.41C163.436 120.803 163.566 119.027 163.566 116.08V72.01C163.566 69.0633 163.436 67.33 163.176 66.81C162.916 66.2033 162.093 65.8133 160.706 65.64L153.556 64.73V61.09H177.736V72.53C180.25 68.11 183.456 64.9033 187.356 62.91C191.343 60.83 195.33 59.79 199.316 59.79C205.73 59.79 210.8 61.8267 214.526 65.9C218.253 69.9733 220.116 75.7367 220.116 83.19V116.08C220.116 119.027 220.246 120.803 220.506 121.41C220.766 121.93 221.59 122.277 222.976 122.45L230.126 123.36ZM280.833 113.48C279.706 118.767 277.539 122.58 274.333 124.92C271.213 127.173 267.399 128.3 262.893 128.3C258.299 128.3 254.529 127.303 251.583 125.31C248.636 123.23 246.469 120.5 245.083 117.12C243.696 113.74 243.003 110.143 243.003 106.33V72.01C243.003 69.0633 242.873 67.33 242.613 66.81C242.353 66.2033 241.529 65.8133 240.142 65.64L232.993 64.73V61.09H243.003V46.01L257.953 43.02V61.09H278.753V65.64H257.953V108.93C257.953 114.477 258.646 118.333 260.033 120.5C261.419 122.58 263.196 123.62 265.363 123.62C267.616 123.62 269.349 122.753 270.563 121.02C271.863 119.287 272.686 116.123 273.033 111.53L280.833 113.48ZM352.142 123.75C350.755 125.05 349.065 126.133 347.072 127C345.165 127.867 342.825 128.3 340.052 128.3C336.498 128.3 333.508 127.52 331.082 125.96C328.742 124.4 327.182 122.19 326.402 119.33C323.542 122.45 320.378 124.747 316.912 126.22C313.532 127.607 310.065 128.3 306.512 128.3C300.532 128.3 296.068 126.653 293.122 123.36C290.175 119.98 288.702 115.777 288.702 110.75C288.702 105.637 290.565 101.52 294.292 98.4C298.018 95.1933 304.605 93.59 314.052 93.59H325.882V83.06C325.882 75.8667 324.928 70.97 323.022 68.37C321.202 65.6833 318.645 64.34 315.352 64.34C313.185 64.34 311.192 64.9033 309.372 66.03C307.552 67.07 306.252 69.0633 305.472 72.01C304.778 74.87 304.908 79.03 305.862 84.49L291.562 82.41C290.868 78.4233 291.302 74.74 292.862 71.36C294.508 67.8933 297.238 65.12 301.052 63.04C304.865 60.8733 309.718 59.79 315.612 59.79C322.285 59.79 327.442 60.8733 331.082 63.04C334.722 65.2067 337.235 68.0667 338.622 71.62C340.095 75.1733 340.832 78.9867 340.832 83.06V113.09C340.832 117.51 341.222 120.283 342.002 121.41C342.782 122.537 343.648 123.1 344.602 123.1C346.162 123.1 347.895 122.19 349.802 120.37L352.142 123.75ZM312.232 121.41C314.485 121.41 316.695 120.847 318.862 119.72C321.115 118.507 323.455 116.297 325.882 113.09V98.14H316.132C311.885 98.14 308.808 99.1367 306.902 101.13C304.995 103.123 304.042 106.243 304.042 110.49C304.042 113.957 304.735 116.643 306.122 118.55C307.508 120.457 309.545 121.41 312.232 121.41ZM402.073 113.48C400.946 118.767 398.779 122.58 395.573 124.92C392.453 127.173 388.639 128.3 384.133 128.3C379.539 128.3 375.769 127.303 372.823 125.31C369.876 123.23 367.709 120.5 366.323 117.12C364.936 113.74 364.243 110.143 364.243 106.33V72.01C364.243 69.0633 364.113 67.33 363.853 66.81C363.593 66.2033 362.769 65.8133 361.383 65.64L354.233 64.73V61.09H364.243V46.01L379.193 43.02V61.09H399.993V65.64H379.193V108.93C379.193 114.477 379.886 118.333 381.273 120.5C382.659 122.58 384.436 123.62 386.603 123.62C388.856 123.62 390.589 122.753 391.803 121.02C393.103 119.287 393.926 116.123 394.273 111.53L402.073 113.48ZM465.712 111.53C464.152 117.597 461.248 121.93 457.002 124.53C452.755 127.043 447.815 128.3 442.182 128.3C431.782 128.3 423.982 125.31 418.782 119.33C413.582 113.263 410.982 105.247 410.982 95.28V92.68C410.982 82.7133 413.408 74.74 418.262 68.76C423.202 62.78 430.308 59.79 439.582 59.79C444.782 59.79 449.375 60.83 453.362 62.91C457.435 64.9033 460.598 67.8067 462.852 71.62C465.192 75.4333 466.362 80.07 466.362 85.53C466.362 86.83 466.275 88.2167 466.102 89.69C466.015 91.1633 465.798 92.6367 465.452 94.11H426.972V97.88C426.972 107.067 428.272 113.697 430.872 117.77C433.472 121.757 437.675 123.75 443.482 123.75C447.208 123.75 450.372 122.667 452.972 120.5C455.572 118.247 457.045 114.477 457.392 109.19L465.712 111.53ZM439.582 64.34C435.335 64.34 432.172 66.29 430.092 70.19C428.012 74.09 426.972 80.5467 426.972 89.56H450.502C450.848 87.8267 451.065 86.2233 451.152 84.75C451.325 83.19 451.412 81.76 451.412 80.46C451.412 74.9133 450.328 70.84 448.162 68.24C445.995 65.64 443.135 64.34 439.582 64.34Z"
    fill="#771AFE" />
  <path
    d="M277.45 191.24V187.6H302.67V191.24L295.52 192.15C294.133 192.323 293.31 192.713 293.05 193.32C292.79 193.84 292.66 195.573 292.66 198.52V276H285.51L237.8 198.91V265.08C237.8 268.027 237.93 269.803 238.19 270.41C238.45 270.93 239.273 271.277 240.66 271.45L247.81 272.36V276H222.59V272.36L229.74 271.45C231.127 271.277 231.95 270.93 232.21 270.41C232.47 269.803 232.6 268.027 232.6 265.08V198.52C232.6 195.573 232.47 193.84 232.21 193.32C231.95 192.713 231.127 192.323 229.74 192.15L222.59 191.24V187.6H248.72L287.46 249.87V198.52C287.46 195.573 287.33 193.84 287.07 193.32C286.81 192.713 285.987 192.323 284.6 192.15L277.45 191.24ZM370.644 241.68V244.28C370.644 254.247 368.044 262.263 362.844 268.33C357.73 274.31 350.407 277.3 340.874 277.3C331.34 277.3 323.974 274.31 318.774 268.33C313.66 262.263 311.104 254.247 311.104 244.28V241.68C311.104 231.713 313.66 223.74 318.774 217.76C323.974 211.78 331.34 208.79 340.874 208.79C350.407 208.79 357.73 211.78 362.844 217.76C368.044 223.74 370.644 231.713 370.644 241.68ZM354.654 239.08C354.654 229.807 353.484 223.22 351.144 219.32C348.804 215.333 345.38 213.34 340.874 213.34C336.454 213.34 333.03 215.333 330.604 219.32C328.264 223.22 327.094 229.807 327.094 239.08V246.88C327.094 256.067 328.264 262.697 330.604 266.77C333.03 270.757 336.454 272.75 340.874 272.75C345.38 272.75 348.804 270.757 351.144 266.77C353.484 262.697 354.654 256.067 354.654 246.88V239.08ZM409.972 251.43L401.002 249.35C395.195 247.963 390.862 245.493 388.002 241.94C385.228 238.3 383.842 234.01 383.842 229.07C383.842 225.43 384.622 222.093 386.182 219.06C387.828 215.94 390.385 213.47 393.852 211.65C397.318 209.743 401.825 208.79 407.372 208.79C413.352 208.79 418.205 209.743 421.932 211.65C425.658 213.557 428.302 216.07 429.862 219.19C431.422 222.31 431.898 225.647 431.292 229.2L416.992 231.8C418.205 225.907 417.858 221.357 415.952 218.15C414.132 214.943 411.055 213.34 406.722 213.34C403.688 213.34 401.175 214.25 399.182 216.07C397.188 217.803 396.192 220.317 396.192 223.61C396.192 226.643 397.058 229.33 398.792 231.67C400.525 233.923 403.082 235.44 406.462 236.22L415.432 238.3C421.845 239.773 426.482 242.113 429.342 245.32C432.202 248.44 433.632 252.34 433.632 257.02C433.632 262.827 431.465 267.68 427.132 271.58C422.885 275.393 416.515 277.3 408.022 277.3C405.075 277.3 401.825 276.867 398.272 276C394.805 275.047 391.598 273.357 388.652 270.93C385.792 268.503 383.712 265.037 382.412 260.53L390.862 257.15C391.468 262.87 393.418 266.9 396.712 269.24C400.092 271.58 403.862 272.75 408.022 272.75C411.922 272.75 415.085 271.883 417.512 270.15C420.025 268.33 421.282 265.73 421.282 262.35C421.282 260.01 420.458 257.887 418.812 255.98C417.252 253.987 414.305 252.47 409.972 251.43ZM456.313 277.3C453.626 277.3 451.416 276.477 449.683 274.83C448.036 273.097 447.213 270.843 447.213 268.07C447.213 265.297 448.036 263.087 449.683 261.44C451.416 259.793 453.626 258.97 456.313 258.97C458.999 258.97 461.209 259.793 462.943 261.44C464.676 263.087 465.543 265.297 465.543 268.07C465.543 270.843 464.676 273.097 462.943 274.83C461.209 276.477 458.999 277.3 456.313 277.3Z"
    fill="#E90363" />
  <circle cx="30.2756" cy="227.276" r="9.27555" fill="#E90363" />
  <path d="M39.9998 227.188H198.384" stroke="#E90363" stroke-width="2" />
</svg>