<svg width="413" height="448" viewBox="0 0 413 448" fill="none" xmlns="http://www.w3.org/2000/svg">
  <circle cx="407.055" cy="155.767" r="5.9453" fill="#E90363" />
  <circle cx="279.033" cy="410.622" r="13.476" fill="#E90363" />
  <circle cx="90.7649" cy="66.191" r="5.9453" fill="#E90363" />
  <circle cx="338.882" cy="105.826" r="5.9453" fill="#E90363" />
  <circle cx="276.258" cy="32.8973" r="5.9453" fill="#E90363" />
  <circle cx="204.122" cy="209.671" r="5.9453" fill="#E90363" />
  <circle cx="70.9473" cy="263.575" r="5.9453" fill="#E90363" />
  <circle cx="109.79" cy="441.141" r="5.9453" fill="#E90363" />
  <circle cx="296.869" cy="212.049" r="5.9453" fill="#E90363" />
  <circle cx="250.495" cy="263.971" r="9.51248" fill="#E90363" />
  <circle cx="71.3436" cy="156.956" r="4.75624" fill="#E90363" />
  <circle cx="117.717" cy="209.671" r="5.9453" fill="#E90363" />
  <circle cx="276.654" cy="106.223" r="7.92706" fill="#E90363" />
  <circle cx="204.518" cy="154.578" r="7.92706" fill="#E90363" />
  <circle cx="7.92706" cy="106.223" r="7.92706" fill="#E90363" />
  <circle cx="118.113" cy="156.956" r="7.92706" fill="#E90363" />
  <circle cx="157.749" cy="317.875" r="7.92706" fill="#E90363" />
  <circle cx="157.749" cy="410.622" r="7.92706" fill="#E90363" />
  <circle cx="157.352" cy="370.59" r="11.4942" fill="#E90363" />
  <circle cx="90.7649" cy="5.9453" r="5.9453" fill="#E90363" />
  <circle cx="157.749" cy="156.956" r="13.476" fill="#E90363" />
  <circle cx="157.749" cy="66.5873" r="13.476" fill="#E90363" />
  <circle cx="204.518" cy="106.223" r="13.476" fill="#E90363" />
  <circle cx="204.518" cy="316.29" r="13.476" fill="#E90363" />
  <circle cx="250.495" cy="210.067" r="13.476" fill="#E90363" />
  <circle cx="110.186" cy="316.29" r="13.476" fill="#E90363" />
  <circle cx="157.749" cy="210.067" r="13.476" fill="#E90363" />
  <path d="M212.445 154.181H401.109" stroke="#E90363" stroke-width="2" />
  <line x1="111.211" y1="329.774" x2="110.393" y2="435.203" stroke="#E90363" stroke-width="2" />
  <line x1="15.8541" y1="106.015" x2="191.042" y2="106.015" stroke="#E90363" stroke-width="2" />
  <line x1="276.362" y1="38.8426" x2="276.362" y2="98.2956" stroke="#E90363" />
  <line x1="76.8925" y1="262.971" x2="240.983" y2="262.971" stroke="#E90363" stroke-width="2" />
</svg>
